<svg width="200" height="200" viewBox="0 0 200 200" xmlns="http://www.w3.org/2000/svg">
    <g fill="#019df4">
    <path d="M199.4,101.8c0,7.7-0.5,14.8-1.9,24.5c-0.4,2.8-1.1,6.8-2,9.4c-2.4,7.4-8.6,14.2-17.3,13c-6.8-1-11.1-6.5-11.7-15 c-0.1-2.2,0-5.7,0.5-10.7c0.8-7.7,1.6-15.9,1.6-23.5c-0.1-10.2-2.2-13-5.2-14c-4.3-1.5-11,5.5-15.8,16.6c-4.3,9.9-7.3,19.6-11,31.9 l-0.2,0.8c-0.6,1.9-1.2,3.9-1.8,6c-6.2,20.4-18.2,29.9-38.8,30.8c-19.9,0.8-30.8-12.8-35.6-21.1c-3.8-6.6-8.1-14.4-12.2-21.9l-1.6-3 c-1.6-2.8-3-5.4-4.2-7.5c-4.3-7.8-6.7-9.1-7.8-8.9c-1.6,0.4-3.7,0.8-3.4,8.9c0.2,6.5,3,15.8,5.5,24c0.4,1.4,0.8,2.7,1.1,3.9 c1.7,5.5,2.7,9.8,3.2,12.9c1.6,10.6-3.6,15-6.9,16.7c-1.6,0.8-3.7,1.2-5.8,1.2c-4.6,0-8.7-2-11.4-5.5c-1.3-1.6-3.2-4.7-4.5-7.8 C10.7,159.3,5,144.7,2,125.7c-2.6-15.9-2-30.8,1.8-46.8c8-33.8,26.3-39.1,36.4-39.3h0.5c12.1,0,18.2,6.3,23.1,11.3l0.6,0.6 C70,57.3,79.9,73.9,84,80.8c3.1,5.2,9.4,13.8,17.7,12.9c5.1-0.6,8.8-3.9,11.5-10.4c1-2.5,2.3-5.8,3.7-9.6l0.4-1.1 c2.8-7.3,6.3-16.3,10.3-25.2c7.3-15.5,21.4-25.4,35.4-24.4c11.4,0.8,20.9,8.8,26.7,22.7c5.3,12.7,8.5,27.5,9.5,44.2 C199.3,94.2,199.4,98.1,199.4,101.8z">
    </path>
  </g>
</svg>